<?xml version="1.0" encoding="UTF-8" standalone="no"?>
<!-- Created with Inkscape (http://www.inkscape.org/) -->

<svg
   width="46.426964"
   height="40.129505"
   viewBox="0 0 46.426964 40.129505"
   version="1.1"
   id="svg1"
   xmlns:inkscape="http://www.inkscape.org/namespaces/inkscape"
   xmlns:sodipodi="http://sodipodi.sourceforge.net/DTD/sodipodi-0.dtd"
   xmlns="http://www.w3.org/2000/svg"
   xmlns:svg="http://www.w3.org/2000/svg">
  <sodipodi:namedview
     id="namedview1"
     pagecolor="#ffffff"
     bordercolor="#000000"
     borderopacity="0.25"
     inkscape:showpageshadow="2"
     inkscape:pageopacity="0.0"
     inkscape:pagecheckerboard="0"
     inkscape:deskcolor="#d1d1d1"
     inkscape:document-units="mm" />
  <defs
     id="defs1" />
  <g
     inkscape:label="Layer 1"
     inkscape:groupmode="layer"
     id="layer1"
     transform="translate(-119.36618,-56.945708)">
    <path
       id="path27"
       style="fill:#06b6d4;fill-opacity:1;stroke-width:0.313545"
       d="m -141.18311,56.952079 a 21.816944,20.06156 0 0 1 18.89393,10.030913 21.816944,20.06156 0 0 1 0,20.061824 21.816944,20.06156 0 0 1 -18.89393,10.030396 v -6.746359 a 17.804632,13.165399 0 0 0 12.28348,-6.354134 17.804632,13.165399 0 0 0 0,-13.165088 17.804632,13.165399 0 0 0 -12.28348,-6.354134 z"
       transform="scale(-1,1)" />
    <path
       style="fill:#06b6d4;fill-opacity:1;stroke-width:0.313545"
       id="path27-7"
       sodipodi:type="arc"
       sodipodi:cx="142.90524"
       sodipodi:cy="-78.977844"
       sodipodi:rx="21.816944"
       sodipodi:ry="20.06156"
       sodipodi:start="4.7123889"
       sodipodi:end="1.5707963"
       sodipodi:arc-type="arc"
       d="m 142.90524,-99.039404 a 21.816944,20.06156 0 0 1 18.89403,10.030779 21.816944,20.06156 0 0 1 0,20.06156 21.816944,20.06156 0 0 1 -18.89403,10.03078"
       transform="matrix(0.99990567,-0.01373485,-0.01373485,-0.99990567,0,0)"
       sodipodi:open="true"
       inkscape:export-filename="path27-7.svg"
       inkscape:export-xdpi="96"
       inkscape:export-ydpi="96" />
    <rect
       style="fill:#06b6d4;fill-opacity:1;stroke-width:0.225637"
       id="rect31"
       width="16.049246"
       height="5.2661591"
       x="125.38474"
       y="74.729309" />
  </g>
</svg>
